<svg width="24" height="24" viewBox="0 0 24 24" fill="none" xmlns="http://www.w3.org/2000/svg">
<path d="M9.29814 20.9365L0.978895 12.6327C0.885311 12.5391 0.819295 12.4404 0.780845 12.3365C0.742378 12.2327 0.723145 12.1205 0.723145 12C0.723145 11.8795 0.742378 11.7673 0.780845 11.6635C0.819295 11.5596 0.88532 11.4609 0.97892 11.3673L9.30774 3.03847C9.49621 2.85 9.72698 2.75577 10 2.75577C10.2731 2.75577 10.5122 2.85833 10.7173 3.06347C10.9161 3.26218 11.0154 3.49615 11.0154 3.76537C11.0154 4.0346 10.9161 4.26858 10.7173 4.46729L3.18464 12L10.7269 19.5423C10.9154 19.7308 11.0096 19.959 11.0096 20.2269C11.0096 20.4949 10.9071 20.7314 10.7019 20.9365C10.5032 21.1352 10.2693 21.2346 10 21.2346C9.73081 21.2346 9.49684 21.1352 9.29814 20.9365Z" fill="black"/>
</svg>
