<svg width="328" height="48" viewBox="0 0 328 48" fill="none" xmlns="http://www.w3.org/2000/svg">
<rect width="328" height="48" rx="12" fill="black"/>
<path d="M108.078 30L109.211 26.8125H113.758L114.891 30H116.375L112.234 18.6875H110.75L106.609 30H108.078ZM109.641 25.5781L111.438 20.5156H111.531L113.328 25.5781H109.641ZM117.734 33.1875H119.078V28.7031H119.188C119.477 29.1719 120.039 30.1797 121.656 30.1719C123.773 30.1797 125.25 28.4766 125.25 25.7812C125.25 23.0938 123.773 21.4062 121.641 21.4062C119.992 21.4062 119.477 22.4062 119.188 22.8594H119.031V21.5156H117.734V33.1875ZM119.047 25.75C119.055 23.8672 119.883 22.6094 121.469 22.6094C123.102 22.6094 123.906 23.9766 123.906 25.75C123.906 27.5547 123.078 28.9688 121.469 28.9688C119.906 28.9688 119.055 27.6562 119.047 25.75ZM127 33.1875H128.344V28.7031H128.453C128.742 29.1719 129.305 30.1797 130.922 30.1719C133.039 30.1797 134.516 28.4766 134.516 25.7812C134.516 23.0938 133.039 21.4062 130.906 21.4062C129.258 21.4062 128.742 22.4062 128.453 22.8594H128.297V21.5156H127V33.1875ZM128.312 25.75C128.32 23.8672 129.148 22.6094 130.734 22.6094C132.367 22.6094 133.172 23.9766 133.172 25.75C133.172 27.5547 132.344 28.9688 130.734 28.9688C129.172 28.9688 128.32 27.6562 128.312 25.75ZM137.609 18.6875H136.266V30H137.609V18.6875ZM143.312 30.1719C145.062 30.1797 146.32 29.3047 146.719 28.0156H145.281C144.969 28.5391 144.328 28.9844 143.312 28.9844C141.805 28.9844 140.758 28 140.688 26.2031H146.844V25.6406C146.852 22.5 144.969 21.4062 143.188 21.4062C140.883 21.4062 139.344 23.2188 139.344 25.8281C139.344 28.4297 140.859 30.1797 143.312 30.1719ZM140.695 25.0625C140.789 23.75 141.719 22.5938 143.188 22.5938C144.586 22.5938 145.477 23.6484 145.484 25.0625H140.695ZM160.797 28.5156H155V25.8906H159.516V24.875H150.891V22.6094H159.188V18.4062H149.641V19.4219H157.984V21.6094H149.672V25.8906H153.797V28.5156H148.078V29.5469H160.797V28.5156ZM170.859 21.1094V18.5781H169.641V21.1094C169.625 23.7422 167.914 26.3984 165.844 27.3438L166.625 28.375C168.25 27.5547 169.617 25.7969 170.258 23.7031C170.922 25.6797 172.289 27.3281 173.875 28.0938L174.625 27.125C172.578 26.1953 170.852 23.6484 170.859 21.1094ZM176.141 31.2969H177.375V17.375H176.141V31.2969ZM184.453 19.9531V19.3594H187.578V18.3594H180.078V19.3594H183.25V19.9531C183.234 21.9453 181.781 23.7344 179.703 24.4688L180.359 25.4219C181.992 24.8281 183.266 23.6016 183.859 22.0234C184.453 23.4609 185.664 24.5938 187.25 25.1562L187.875 24.2031C185.82 23.4922 184.461 21.8047 184.453 19.9531ZM181.516 27.4844H189.391V31.2656H190.609V26.4844H181.516V27.4844ZM189.391 25.75H190.609V22.0938H192.703V21.0469H190.609V17.375H189.391V25.75ZM204.328 17.375H203.109V31.2656H204.328V24.125H206.656V23.1094H204.328V17.375ZM193.5 20.625H201.766V19.6094H198.297V17.5469H197.078V19.6094H193.5V20.625ZM194.297 24.9688C194.289 26.8516 195.727 28.1562 197.703 28.1562C199.664 28.1562 201.094 26.8516 201.109 24.9688C201.094 23.0938 199.664 21.7812 197.703 21.7812C195.727 21.7812 194.289 23.0938 194.297 24.9688ZM195.469 24.9688C195.461 23.7109 196.406 22.8047 197.703 22.8125C198.984 22.8047 199.922 23.7109 199.938 24.9688C199.922 26.2344 198.984 27.125 197.703 27.1094C196.406 27.125 195.461 26.2344 195.469 24.9688ZM218.891 17.375H217.656V31.2656H218.891V17.375ZM207.578 27.6562L208.25 28.6562C212.906 26.4219 214.766 22.8828 214.781 18.8906H208.219V19.8906H213.531C213.258 23.2109 211.336 25.875 207.578 27.6562Z" fill="white"/>
<path d="M32.2431 15.6923C33.1507 15.6923 34.2885 15.0598 34.9661 14.2165C35.5797 13.4522 36.0272 12.3849 36.0272 11.3175C36.0272 11.1726 36.0144 11.0276 35.9888 10.9091C34.9789 10.9486 33.7644 11.6074 33.0357 12.4903C32.4604 13.1623 31.9363 14.2165 31.9363 15.297C31.9363 15.4551 31.9618 15.6132 31.9746 15.6659C32.0385 15.6791 32.1408 15.6923 32.2431 15.6923ZM29.0471 31.6363C30.2871 31.6363 30.8368 30.7798 32.3837 30.7798C33.9561 30.7798 34.3013 31.61 35.682 31.61C37.0371 31.61 37.9448 30.3186 38.8013 29.0537C39.7601 27.6042 40.1564 26.1811 40.182 26.1152C40.0925 26.0889 37.4973 24.9952 37.4973 21.925C37.4973 19.2632 39.5428 18.0641 39.6579 17.9719C38.3027 15.969 36.2445 15.9163 35.682 15.9163C34.1607 15.9163 32.9206 16.865 32.1408 16.865C31.2971 16.865 30.1848 15.969 28.8681 15.969C26.3624 15.969 23.8184 18.1036 23.8184 22.1358C23.8184 24.6394 24.7644 27.2879 25.9277 29.0009C26.9249 30.4504 27.7942 31.6363 29.0471 31.6363Z" fill="white"/>
</svg>
