<svg width="71" height="23" viewBox="0 0 71 23" fill="none" xmlns="http://www.w3.org/2000/svg">
<path d="M32.0081 9.07734C33.1764 8.73766 33.587 8.14416 33.7102 6.74065H32.0417V5.48647H36.6926V6.74065H35.1995C35.2928 8.09936 35.6437 8.63315 36.9016 9.05494V9.47674C36.8977 9.5793 36.8689 9.67935 36.8177 9.76833C36.7665 9.85731 36.6946 9.93256 36.608 9.98761C36.5213 10.0427 36.4227 10.0759 36.3204 10.0844C36.2181 10.093 36.1153 10.0766 36.0207 10.0367C35.3765 9.80149 34.8367 9.34508 34.4978 8.74886C34.1536 9.37936 33.5782 9.85173 32.8927 10.0665C32.7987 10.1041 32.6971 10.1187 32.5963 10.1091C32.4955 10.0994 32.3985 10.0658 32.3134 10.011C32.2283 9.95615 32.1575 9.88178 32.107 9.79404C32.0564 9.7063 32.0277 9.60774 32.023 9.5066L32.0081 9.07734ZM33.8147 11.1565H39.7609C39.8776 11.153 39.9938 11.1725 40.1029 11.214C40.212 11.2554 40.3119 11.318 40.3969 11.3981C40.4818 11.4782 40.5501 11.5742 40.5979 11.6807C40.6457 11.7872 40.672 11.902 40.6754 12.0187V15.2513H34.7553C34.5159 15.2584 34.2832 15.1713 34.1073 15.0086C33.9314 14.846 33.8263 14.6208 33.8147 14.3815V11.1565ZM35.4086 13.6126C35.4086 13.8179 35.5056 13.9448 35.7557 13.9448H39.0704V12.5152H35.4086V13.6126ZM38.1185 10.4099C37.9267 10.3462 37.7596 10.2242 37.6405 10.0609C37.5214 9.89762 37.4562 9.70123 37.4541 9.49914V5.36328H39.0144V7.01688H39.6676V5.36328H41.2129V9.152C41.2129 9.50661 41.2129 10.4286 40.9218 10.9885L40.2984 10.6936C40.0979 10.6049 39.9288 10.4576 39.8136 10.2711C39.6983 10.0845 39.6422 9.86748 39.6527 9.64845C39.6527 9.51407 39.6527 9.37223 39.6527 9.21918V8.35319H39.0144V9.30131C39.0403 9.75789 38.9911 10.2156 38.8688 10.6563L38.1185 10.4099Z" fill="#2D353B"/>
<path d="M42.9785 8.77499C43.1428 8.92546 43.3566 9.01044 43.5794 9.01388V6.81158H42.8329V5.56859H47.775V6.81158H47.2673V9.02508H47.8459V10.2681H44.1767C43.8226 10.2666 43.471 10.2087 43.1352 10.0964C42.9991 10.0558 42.8781 9.97593 42.7873 9.86677C42.6964 9.75762 42.6399 9.62406 42.6247 9.48287C42.6096 9.34168 42.6365 9.19916 42.7021 9.07322C42.7677 8.94727 42.869 8.84351 42.9934 8.77499M51.0785 13.4297C51.0785 13.7843 51.0785 14.7063 50.7873 15.2662L49.9698 14.8929C49.8111 14.8244 49.6777 14.7081 49.5881 14.5603C49.4984 14.4125 49.457 14.2404 49.4697 14.068C49.4697 13.8963 49.4958 13.6947 49.4958 13.5006V12.4741H45.065C44.8616 12.4656 44.6691 12.3797 44.5269 12.234C44.3847 12.0883 44.3035 11.8938 44.2998 11.6902V11.1602H51.0635L51.0785 13.4297ZM45.7817 6.81158H45.08V9.02508H45.7817V6.81158ZM48.2453 9.44688V5.36328H49.7907V7.01688H50.3244V5.36328H51.8698V9.152C51.8698 9.50661 51.8698 10.4286 51.5786 10.9885L50.2125 10.3502C50.2741 9.98005 50.3066 9.60562 50.3095 9.23038V8.36439H49.7757V9.42448C49.8014 9.88229 49.7522 10.3412 49.6302 10.7832L48.1595 10.1561C48.2126 9.92737 48.2364 9.69281 48.2304 9.45807" fill="#2D353B"/>
<path d="M68.473 12.3995H63.4599C63.2094 12.3927 62.9712 12.2889 62.7958 12.1099C62.6203 11.9309 62.5211 11.6908 62.5193 11.4401V8.18521H66.7671V7.18485H62.4932V5.56859H68.4655V9.73057H64.4192V10.4361C64.4192 10.6638 64.5163 10.8093 64.7701 10.8093H68.473V12.3995ZM71 13.4297C71 13.7843 71 14.7063 70.7089 15.2662L70.1266 14.9974C69.9047 14.9006 69.7172 14.7391 69.5886 14.534C69.4601 14.3288 69.3965 14.0896 69.4062 13.8478C69.4062 13.7358 69.4062 13.6201 69.4062 13.4969V5.36328H70.9888L71 13.4297Z" fill="#2D353B"/>
<path d="M58.0288 11.0669H60.9515V9.67086H55.6884C55.6405 9.67889 55.5913 9.67595 55.5447 9.66223C55.4981 9.64852 55.4552 9.62439 55.4192 9.59169C55.3833 9.55898 55.3553 9.51854 55.3372 9.47341C55.3192 9.42828 55.3116 9.37965 55.3151 9.33118V8.95791H60.7836V7.66639H55.3263V6.9497H60.9254V5.5686H53.6989V10.1972C53.7017 10.3168 53.7285 10.4346 53.7776 10.5437C53.8267 10.6528 53.8972 10.751 53.9849 10.8324C54.0725 10.9138 54.1756 10.9768 54.2881 11.0177C54.4005 11.0587 54.52 11.0766 54.6395 11.0706H58.0288V11.0669Z" fill="#2D353B"/>
<path d="M56.6216 13.1013H54.4304C53.8743 13.1013 53.5122 13.1013 53.124 12.7056C52.9755 12.7839 52.8512 12.9012 52.7645 13.045C52.6778 13.1887 52.632 13.3534 52.632 13.5212C52.632 13.6891 52.6778 13.8538 52.7645 13.9975C52.8512 14.1412 52.9755 14.2586 53.124 14.3368C53.4974 14.4853 53.8985 14.5515 54.2998 14.5309H60.6454C60.9806 14.5312 61.3069 14.4225 61.5749 14.2211C61.7246 14.1052 61.8374 13.9483 61.8996 13.7695L62.146 13.1013H58.2901V11.6567H56.6216V13.1013Z" fill="#2D353B"/>
<path d="M13.7438 22.9108C14.3767 22.9108 14.8898 22.3977 14.8898 21.7648C14.8898 21.1319 14.3767 20.6189 13.7438 20.6189C13.111 20.6189 12.5979 21.1319 12.5979 21.7648C12.5979 22.3977 13.111 22.9108 13.7438 22.9108Z" fill="#2D353B"/>
<path d="M26.3381 10.3129C26.971 10.3129 27.484 9.79982 27.484 9.16693C27.484 8.53404 26.971 8.021 26.3381 8.021C25.7052 8.021 25.1921 8.53404 25.1921 9.16693C25.1921 9.79982 25.7052 10.3129 26.3381 10.3129Z" fill="#2D353B"/>
<path d="M26.3381 10.3129C26.971 10.3129 27.484 9.79982 27.484 9.16693C27.484 8.53404 26.971 8.021 26.3381 8.021C25.7052 8.021 25.1921 8.53404 25.1921 9.16693C25.1921 9.79982 25.7052 10.3129 26.3381 10.3129Z" fill="#2D353B"/>
<path d="M8.01789 10.3129C8.65078 10.3129 9.16384 9.79982 9.16384 9.16693C9.16384 8.53404 8.65078 8.021 8.01789 8.021C7.385 8.021 6.87195 8.53404 6.87195 9.16693C6.87195 9.79982 7.385 10.3129 8.01789 10.3129Z" fill="#2D353B"/>
<path d="M13.7438 10.3129C14.3767 10.3129 14.8898 9.79982 14.8898 9.16693C14.8898 8.53404 14.3767 8.021 13.7438 8.021C13.111 8.021 12.5979 8.53404 12.5979 9.16693C12.5979 9.79982 13.111 10.3129 13.7438 10.3129Z" fill="#2D353B"/>
<path d="M1.14594 10.3129C1.77883 10.3129 2.29189 9.79982 2.29189 9.16693C2.29189 8.53404 1.77883 8.021 1.14594 8.021C0.513057 8.021 0 8.53404 0 9.16693C0 9.79982 0.513057 10.3129 1.14594 10.3129Z" fill="#2D353B"/>
<path d="M20.612 2.29872C21.2449 2.29872 21.758 1.78567 21.758 1.15278C21.758 0.519895 21.2449 0.00683594 20.612 0.00683594C19.9791 0.00683594 19.4661 0.519895 19.4661 1.15278C19.4661 1.78567 19.9791 2.29872 20.612 2.29872Z" fill="#2D353B"/>
<path d="M6.8719 2.29872C7.50478 2.29872 8.01784 1.78567 8.01784 1.15278C8.01784 0.519895 7.50478 0.00683594 6.8719 0.00683594C6.23901 0.00683594 5.72595 0.519895 5.72595 1.15278C5.72595 1.78567 6.23901 2.29872 6.8719 2.29872Z" fill="#2D353B"/>
<path d="M27.2712 8.50627L21.5452 0.492121C21.3689 0.244626 21.1016 0.0772652 20.802 0.0268638C20.5024 -0.0235377 20.1951 0.0471484 19.9476 0.223365C19.7001 0.399581 19.5327 0.666893 19.4823 0.966502C19.4319 1.26611 19.5026 1.57347 19.6788 1.82097L25.4085 9.82392C25.55 10.0201 25.7499 10.1664 25.9796 10.2421C26.2093 10.3177 26.4571 10.3187 26.6874 10.245C26.9177 10.1713 27.1188 10.0266 27.2619 9.83157C27.405 9.63659 27.4827 9.40133 27.4839 9.15949C27.4832 8.92484 27.4088 8.69634 27.2712 8.50627Z" fill="#ADE0EE"/>
<path d="M21.7618 1.15279C21.7639 0.917692 21.6935 0.687646 21.5601 0.494054C21.4267 0.300463 21.2368 0.152762 21.0163 0.0711049C20.7958 -0.0105526 20.5555 -0.0221852 20.3282 0.0377966C20.1009 0.0977783 19.8976 0.226449 19.7461 0.40625L12.8854 8.42413C12.6874 8.6548 12.5891 8.95467 12.6122 9.25777C12.6353 9.56088 12.7779 9.8424 13.0085 10.0404C13.2392 10.2384 13.5391 10.3366 13.8422 10.3135C14.1453 10.2904 14.4268 10.1479 14.6248 9.91722L21.4706 1.89934C21.654 1.69346 21.7574 1.4285 21.7618 1.15279Z" fill="#ADE0EE"/>
<path d="M14.6135 8.42425L7.74157 0.410104C7.58973 0.231746 7.38673 0.104385 7.16008 0.0452734C6.93342 -0.0138386 6.69408 -0.00184469 6.47447 0.0796411C6.25487 0.161127 6.06563 0.308162 5.93239 0.500814C5.79916 0.693465 5.72837 0.922416 5.72963 1.15665C5.72987 1.43045 5.82782 1.69517 6.00585 1.90319L12.8852 9.9136C12.9833 10.0278 13.1029 10.1216 13.2371 10.1896C13.3714 10.2576 13.5178 10.2985 13.6679 10.3099C13.818 10.3214 13.9688 10.3031 14.1119 10.2563C14.2549 10.2094 14.3873 10.1348 14.5015 10.0368C14.6157 9.93875 14.7095 9.81917 14.7775 9.68489C14.8455 9.5506 14.8864 9.40425 14.8978 9.25417C14.9093 9.10408 14.891 8.95321 14.8442 8.81018C14.7973 8.66714 14.7227 8.53473 14.6247 8.42051L14.6135 8.42425Z" fill="#ADE0EE"/>
<path d="M20.6158 0.00683594H6.87189C6.56797 0.00683594 6.27649 0.127564 6.06159 0.342471C5.84668 0.557377 5.72595 0.848848 5.72595 1.15277C5.72595 1.45669 5.84668 1.74818 6.06159 1.96308C6.27649 2.17799 6.56797 2.29872 6.87189 2.29872H20.6158C20.9197 2.29872 21.2112 2.17799 21.4261 1.96308C21.641 1.74818 21.7617 1.45669 21.7617 1.15277C21.7617 0.848848 21.641 0.557377 21.4261 0.342471C21.2112 0.127564 20.9197 0.00683594 20.6158 0.00683594Z" fill="#83D2E2"/>
<path d="M0.216427 8.50602L5.94241 0.491878C6.08256 0.293308 6.2824 0.144624 6.51286 0.0674361C6.74332 -0.00975189 6.9924 -0.0114187 7.22387 0.0626859C7.45535 0.13679 7.65714 0.282803 7.79993 0.479484C7.94271 0.676165 8.01904 0.913259 8.01781 1.1563C8.01945 1.39478 7.94491 1.62756 7.80504 1.82072L2.07906 9.82367C1.93759 10.0198 1.7377 10.1662 1.50799 10.2418C1.27828 10.3175 1.03052 10.3185 0.800194 10.2448C0.569865 10.171 0.368769 10.0263 0.225694 9.83133C0.0826188 9.63634 0.00490024 9.40109 0.00366211 9.15925C0.0043903 8.92459 0.0788153 8.69609 0.216427 8.50602Z" fill="#83D2E2"/>
<path d="M0.00366821 9.17065C0.00317699 9.02034 0.0323604 8.87141 0.0895419 8.7324C0.146723 8.59339 0.230781 8.46703 0.336894 8.36057C0.443007 8.25411 0.56909 8.16964 0.707913 8.11201C0.846736 8.05437 0.99557 8.0247 1.14588 8.02471C1.29655 8.02333 1.44595 8.05237 1.58513 8.11009C1.72431 8.16782 1.85041 8.25304 1.95588 8.36065L14.5538 20.9548C14.665 21.0601 14.754 21.1866 14.8155 21.3268C14.877 21.4671 14.9098 21.6182 14.9119 21.7714C14.914 21.9245 14.8854 22.0765 14.8277 22.2183C14.7701 22.3602 14.6846 22.4891 14.5763 22.5974C14.4681 22.7057 14.3392 22.7912 14.1973 22.8488C14.0554 22.9064 13.9034 22.935 13.7503 22.9329C13.5972 22.9308 13.446 22.8981 13.3058 22.8365C13.1656 22.775 13.0391 22.6861 12.9338 22.5748L0.343347 9.98438C0.235631 9.87802 0.150131 9.75132 0.0918173 9.61162C0.0335041 9.47193 0.00353997 9.32203 0.00366821 9.17065Z" fill="#83D2E2"/>
<path d="M26.3418 8.02482H8.03286C7.87712 8.01592 7.7212 8.03892 7.57466 8.09239C7.42811 8.14586 7.29404 8.22869 7.18063 8.3358C7.06722 8.44291 6.97688 8.57205 6.91513 8.7153C6.85338 8.85855 6.82153 9.0129 6.82153 9.16889C6.82153 9.32489 6.85338 9.47925 6.91513 9.6225C6.97688 9.76575 7.06722 9.89488 7.18063 10.002C7.29404 10.1091 7.42811 10.1919 7.57466 10.2454C7.7212 10.2989 7.87712 10.3219 8.03286 10.313H26.3568C26.6489 10.2963 26.9236 10.1685 27.1245 9.95575C27.3254 9.74303 27.4373 9.4615 27.4373 9.16889C27.4373 8.87629 27.3254 8.59477 27.1245 8.38205C26.9236 8.16932 26.6489 8.04151 26.3568 8.02482H26.3418Z" fill="#52C6D8"/>
<path d="M27.484 9.17065C27.4844 9.02034 27.4553 8.87141 27.3981 8.7324C27.3409 8.59339 27.2568 8.46703 27.1507 8.36057C27.0446 8.25411 26.9185 8.16964 26.7797 8.11201C26.6409 8.05437 26.4921 8.0247 26.3417 8.02471C26.1911 8.02333 26.0417 8.05237 25.9025 8.11009C25.7633 8.16782 25.6372 8.25304 25.5317 8.36065L12.9338 20.9548C12.7286 21.1716 12.6161 21.4599 12.6202 21.7583C12.6243 22.0568 12.7447 22.3418 12.9558 22.5529C13.1668 22.764 13.4519 22.8843 13.7503 22.8884C14.0488 22.8925 14.3371 22.78 14.5538 22.5748L27.1443 9.98438C27.252 9.87802 27.3375 9.75132 27.3958 9.61162C27.4541 9.47193 27.4841 9.32203 27.484 9.17065Z" fill="#52C6D8"/>
</svg>
