<svg width="58" height="26" viewBox="0 0 58 26" fill="none" xmlns="http://www.w3.org/2000/svg">
<rect width="58" height="26" rx="12" fill="#EEEEEE"/>
<path d="M17.3984 7.50781H16.2852V10.3438H14.2812V11.2461H16.2852V15.1953H17.3984V7.50781ZM8.65625 13.0039L9.23047 13.9062C10.4785 13.4609 11.3984 12.5352 11.8555 11.375C12.3125 12.418 13.1855 13.2617 14.3633 13.6719L14.9375 12.7812C13.3496 12.2539 12.4004 10.9355 12.4062 9.62891V9.21875H14.6562V8.30469H8.99609V9.21875H11.2695V9.62891C11.2754 11.0762 10.2676 12.459 8.65625 13.0039ZM10.5781 17.7734H17.6797V16.8711H11.6914V14.5039H10.5781V17.7734ZM21.5117 8.14062C20.1113 8.14648 19.1035 9.17773 19.1094 10.6602C19.1035 12.1367 20.1113 13.1445 21.5117 13.1445C22.9004 13.1445 23.9258 12.1367 23.9258 10.6602C23.9258 9.17773 22.9004 8.14648 21.5117 8.14062ZM20.1055 10.6602C20.0996 9.72852 20.6973 9.10156 21.5117 9.10156C22.3203 9.10156 22.9062 9.72852 22.918 10.6602C22.9062 11.5742 22.3203 12.2129 21.5117 12.207C20.6973 12.2129 20.0996 11.5742 20.1055 10.6602ZM20.832 15.1953H26.8672V17.9961H27.9688V14.3047H20.832V15.1953ZM24.6523 13.6953H25.6953V11.0586H26.9141V13.7656H27.9688V7.50781H26.9141V10.1562H25.6953V7.69531H24.6523V13.6953ZM33.0312 10.168V8.375H31.918V10.168C31.9121 12.0898 30.8223 14.1055 29.2109 14.8789L29.9023 15.7812C31.0977 15.1602 32.0176 13.9004 32.4863 12.4121C32.9492 13.8125 33.834 14.9844 34.9766 15.582L35.668 14.6914C34.1035 13.9297 33.0195 12.0254 33.0312 10.168ZM36.4531 17.9961H37.5664V12.6289H39.2539V11.6797H37.5664V7.49609H36.4531V17.9961ZM49.332 12.6172H47.0117V11.2109C47.8262 10.877 48.2832 10.3496 48.2891 9.65234C48.2832 8.4043 46.8418 7.67773 44.5391 7.68359C42.2305 7.67773 40.7832 8.4043 40.7891 9.65234C40.7832 10.3496 41.2402 10.877 42.0547 11.2051V12.6172H39.7578V13.5195H49.332V12.6172ZM40.8945 16.0977C40.8945 17.3105 42.2539 17.9727 44.5391 17.9727C46.7949 17.9727 48.1543 17.3105 48.1602 16.0977C48.1543 14.8965 46.7949 14.2344 44.5391 14.2344C42.2539 14.2344 40.8945 14.8965 40.8945 16.0977ZM41.9375 9.65234C41.9316 8.94922 42.9043 8.54492 44.5391 8.53906C46.1621 8.54492 47.1465 8.94922 47.1406 9.65234C47.1465 10.3555 46.1621 10.748 44.5391 10.7539C42.9043 10.748 41.9316 10.3555 41.9375 9.65234ZM42.0195 16.0977C42.0137 15.4531 42.9336 15.0898 44.5391 15.0898C46.1211 15.0898 47.0469 15.4531 47.0469 16.0977C47.0469 16.7539 46.1211 17.1289 44.5391 17.1172C42.9336 17.1289 42.0137 16.7539 42.0195 16.0977ZM43.1797 12.6172V11.5039C43.5898 11.5625 44.0469 11.5977 44.5391 11.5977C45.0371 11.5977 45.5 11.5625 45.9102 11.498V12.6172H43.1797Z" fill="#313131"/>
</svg>
