<svg width="32" height="26" viewBox="0 0 32 26" fill="none" xmlns="http://www.w3.org/2000/svg">
<g clip-path="url(#clip0_115_466)">
<path d="M15.9295 25.9917C16.6478 25.9917 17.23 25.4095 17.23 24.6912C17.23 23.9729 16.6478 23.3906 15.9295 23.3906C15.2112 23.3906 14.6289 23.9729 14.6289 24.6912C14.6289 25.4095 15.2112 25.9917 15.9295 25.9917Z" fill="#2D353B"/>
<path d="M30.2224 11.691C30.9407 11.691 31.523 11.1087 31.523 10.3904C31.523 9.67212 30.9407 9.08984 30.2224 9.08984C29.5042 9.08984 28.9219 9.67212 28.9219 10.3904C28.9219 11.1087 29.5042 11.691 30.2224 11.691Z" fill="#2D353B"/>
<path d="M30.2224 11.691C30.9407 11.691 31.523 11.1087 31.523 10.3904C31.523 9.67212 30.9407 9.08984 30.2224 9.08984C29.5042 9.08984 28.9219 9.67212 28.9219 10.3904C28.9219 11.1087 29.5042 11.691 30.2224 11.691Z" fill="#2D353B"/>
<path d="M9.43338 11.691C10.1517 11.691 10.7339 11.1087 10.7339 10.3904C10.7339 9.67212 10.1517 9.08984 9.43338 9.08984C8.71509 9.08984 8.13281 9.67212 8.13281 10.3904C8.13281 11.1087 8.71509 11.691 9.43338 11.691Z" fill="#2D353B"/>
<path d="M15.9295 11.691C16.6478 11.691 17.23 11.1087 17.23 10.3904C17.23 9.67212 16.6478 9.08984 15.9295 9.08984C15.2112 9.08984 14.6289 9.67212 14.6289 10.3904C14.6289 11.1087 15.2112 11.691 15.9295 11.691Z" fill="#2D353B"/>
<path d="M1.63259 11.691C2.35088 11.691 2.93316 11.1087 2.93316 10.3904C2.93316 9.67212 2.35088 9.08984 1.63259 9.08984C0.914313 9.08984 0.332031 9.67212 0.332031 10.3904C0.332031 11.1087 0.914313 11.691 1.63259 11.691Z" fill="#2D353B"/>
<path d="M23.7263 2.59722C24.4446 2.59722 25.0269 2.01494 25.0269 1.29666C25.0269 0.578379 24.4446 -0.00390625 23.7263 -0.00390625C23.0081 -0.00390625 22.4258 0.578379 22.4258 1.29666C22.4258 2.01494 23.0081 2.59722 23.7263 2.59722Z" fill="#2D353B"/>
<path d="M8.13259 2.59722C8.85088 2.59722 9.43316 2.01494 9.43316 1.29666C9.43316 0.578379 8.85088 -0.00390625 8.13259 -0.00390625C7.41431 -0.00390625 6.83203 0.578379 6.83203 1.29666C6.83203 2.01494 7.41431 2.59722 8.13259 2.59722Z" fill="#2D353B"/>
<path d="M31.2836 9.64152L24.785 0.546053C24.585 0.265164 24.2816 0.0752217 23.9416 0.0180198C23.6015 -0.0391822 23.2527 0.0410414 22.9718 0.241034C22.6909 0.441026 22.501 0.744407 22.4438 1.08444C22.3866 1.42447 22.4668 1.77331 22.6668 2.0542L29.1696 11.137C29.3302 11.3596 29.557 11.5257 29.8177 11.6115C30.0785 11.6974 30.3596 11.6986 30.621 11.6149C30.8825 11.5312 31.1107 11.3669 31.2731 11.1456C31.4354 10.9244 31.5236 10.6574 31.525 10.3829C31.5242 10.1166 31.4397 9.85724 31.2836 9.64152Z" fill="#ADE0EE"/>
<path d="M25.0324 1.29662C25.0348 1.0298 24.9549 0.768709 24.8035 0.548997C24.6521 0.329285 24.4366 0.161655 24.1863 0.0689801C23.9361 -0.0236951 23.6634 -0.0368973 23.4054 0.0311776C23.1474 0.0992526 22.9167 0.245284 22.7447 0.449345L14.9583 9.54906C14.7336 9.81085 14.6221 10.1512 14.6483 10.4952C14.6745 10.8392 14.8363 11.1587 15.0981 11.3834C15.3599 11.6081 15.7002 11.7196 16.0442 11.6934C16.3882 11.6672 16.7077 11.5054 16.9324 11.2436L24.7019 2.14389C24.9101 1.91023 25.0274 1.60953 25.0324 1.29662Z" fill="#ADE0EE"/>
<path d="M16.9185 9.55149L9.11936 0.456018C8.94703 0.253594 8.71664 0.109049 8.45941 0.0419612C8.20217 -0.0251265 7.93053 -0.0115144 7.6813 0.080966C7.43206 0.173446 7.21729 0.340321 7.06607 0.558966C6.91486 0.777611 6.83453 1.03745 6.83596 1.30329C6.83623 1.61403 6.9474 1.91448 7.14945 2.15056L14.9571 11.2418C15.0683 11.3714 15.204 11.4779 15.3564 11.555C15.5088 11.6322 15.6749 11.6786 15.8453 11.6916C16.0156 11.7046 16.1868 11.6839 16.3492 11.6307C16.5115 11.5775 16.6618 11.4929 16.7914 11.3816C16.921 11.2703 17.0275 11.1346 17.1046 10.9822C17.1818 10.8298 17.2282 10.6637 17.2412 10.4934C17.2542 10.323 17.2335 10.1518 17.1803 9.98949C17.1271 9.82715 17.0425 9.67687 16.9312 9.54725L16.9185 9.55149Z" fill="#ADE0EE"/>
<path d="M23.7309 -0.00390625H8.13259C7.78766 -0.00390625 7.45686 0.133112 7.21295 0.377015C6.96905 0.620918 6.83203 0.951716 6.83203 1.29665C6.83203 1.64158 6.96905 1.97239 7.21295 2.21629C7.45686 2.4602 7.78766 2.59721 8.13259 2.59721H23.7309C24.0758 2.59721 24.4066 2.4602 24.6505 2.21629C24.8944 1.97239 25.0314 1.64158 25.0314 1.29665C25.0314 0.951716 24.8944 0.620918 24.6505 0.377015C24.4066 0.133112 24.0758 -0.00390625 23.7309 -0.00390625Z" fill="#83D2E2"/>
<path d="M0.57741 9.6443L7.07599 0.548825C7.23505 0.323463 7.46184 0.154717 7.7234 0.0671143C7.98496 -0.0204885 8.26765 -0.0223801 8.53035 0.0617231C8.79306 0.145826 9.02208 0.31154 9.18413 0.534759C9.34618 0.757977 9.43281 1.02706 9.43141 1.3029C9.43327 1.57355 9.34867 1.83774 9.18994 2.05697L2.69136 11.1397C2.53081 11.3624 2.30395 11.5285 2.04324 11.6143C1.78253 11.7002 1.50135 11.7013 1.23994 11.6176C0.978537 11.534 0.750307 11.3697 0.587927 11.1484C0.425548 10.9271 0.337343 10.6601 0.335938 10.3857C0.336764 10.1193 0.421231 9.86001 0.57741 9.6443Z" fill="#83D2E2"/>
<path d="M0.335944 10.3983C0.335387 10.2277 0.368508 10.0587 0.433405 9.9009C0.498302 9.74313 0.5937 9.59971 0.714131 9.47889C0.834562 9.35806 0.977656 9.2622 1.13521 9.19679C1.29277 9.13138 1.46168 9.09771 1.63227 9.09771C1.80327 9.09614 1.97283 9.12911 2.13079 9.19462C2.28875 9.26013 2.43187 9.35685 2.55156 9.47898L16.8493 23.7725C16.9755 23.892 17.0765 24.0355 17.1463 24.1947C17.2161 24.3538 17.2533 24.5254 17.2557 24.6992C17.2581 24.8729 17.2256 25.0454 17.1602 25.2065C17.0948 25.3675 16.9978 25.5138 16.8749 25.6366C16.752 25.7595 16.6057 25.8566 16.4447 25.922C16.2837 25.9874 16.1112 26.0198 15.9374 26.0174C15.7636 26.0151 15.5921 25.9779 15.4329 25.9081C15.2737 25.8383 15.1302 25.7373 15.0107 25.6111L0.721455 11.3218C0.599205 11.2011 0.502168 11.0573 0.435987 10.8987C0.369806 10.7402 0.335799 10.5701 0.335944 10.3983Z" fill="#83D2E2"/>
<path d="M30.2283 9.09587H9.44898C9.27223 9.08577 9.09527 9.11187 8.92896 9.17256C8.76264 9.23325 8.61047 9.32725 8.48177 9.44881C8.35306 9.57038 8.25052 9.71694 8.18044 9.87952C8.11037 10.0421 8.07422 10.2173 8.07422 10.3943C8.07422 10.5714 8.11037 10.7465 8.18044 10.9091C8.25052 11.0717 8.35306 11.2183 8.48177 11.3398C8.61047 11.4614 8.76264 11.5554 8.92896 11.6161C9.09527 11.6768 9.27223 11.7029 9.44898 11.6928H30.2453C30.5768 11.6738 30.8886 11.5288 31.1166 11.2873C31.3446 11.0459 31.4717 10.7264 31.4717 10.3943C31.4717 10.0622 31.3446 9.74273 31.1166 9.5013C30.8886 9.25988 30.5768 9.11481 30.2453 9.09587H30.2283Z" fill="#52C6D8"/>
<path d="M31.5256 10.3983C31.5262 10.2277 31.4931 10.0587 31.4282 9.9009C31.3633 9.74313 31.2679 9.59971 31.1474 9.47889C31.027 9.35806 30.8839 9.2622 30.7264 9.19679C30.5688 9.13138 30.3999 9.09771 30.2293 9.09771C30.0583 9.09614 29.8887 9.12911 29.7308 9.19462C29.5728 9.26013 29.4297 9.35685 29.31 9.47898L15.0123 23.7725C14.7794 24.0185 14.6517 24.3457 14.6564 24.6844C14.661 25.0231 14.7976 25.3466 15.0372 25.5862C15.2767 25.8257 15.6002 25.9623 15.939 25.967C16.2777 25.9716 16.6048 25.8439 16.8509 25.6111L31.1401 11.3218C31.2624 11.2011 31.3594 11.0573 31.4256 10.8987C31.4918 10.7402 31.5258 10.5701 31.5256 10.3983Z" fill="#52C6D8"/>
</g>
<defs>
<clipPath id="clip0_115_466">
<rect width="32" height="26" fill="white"/>
</clipPath>
</defs>
</svg>
