<svg width="328" height="48" viewBox="0 0 328 48" fill="none" xmlns="http://www.w3.org/2000/svg">
<rect width="328" height="48" rx="12" fill="#FFE812"/>
<path d="M113.945 18.8281H107.648V19.8438H112.727C112.672 20.6953 112.531 21.5156 112.281 22.2969L106.945 22.6562L107.148 23.7344L111.906 23.2812C111.062 25.1484 109.492 26.7578 106.883 28.0312L107.57 28.9688C112.57 26.5078 113.938 22.8359 113.945 18.8281ZM116.273 31.2656H117.492V24.0625H119.742V23.0312H117.492V17.375H116.273V31.2656ZM127.773 18.8281H121.477V19.8438H126.555C126.5 20.6953 126.359 21.5156 126.109 22.2969L120.773 22.6562L120.977 23.7344L125.734 23.2812C124.891 25.1484 123.32 26.7578 120.711 28.0312L121.398 28.9688C126.398 26.5078 127.766 22.8359 127.773 18.8281ZM130.102 31.2656H131.32V24.0625H133.57V23.0312H131.32V17.375H130.102V31.2656ZM140.727 18.2812C137.781 18.2969 135.648 19.7344 135.648 21.9219C135.648 23.9844 137.492 25.3516 140.117 25.5391V28.4531H134.398V29.4844H147.117V28.4531H141.32V25.5391C143.961 25.3594 145.805 23.9922 145.805 21.9219C145.805 19.7344 143.68 18.2969 140.727 18.2812ZM136.836 21.9219C136.828 20.3516 138.477 19.2891 140.727 19.2969C142.977 19.2891 144.617 20.3516 144.617 21.9219C144.617 23.5234 142.977 24.5625 140.727 24.5781C138.477 24.5625 136.828 23.5234 136.836 21.9219ZM160.945 28.5156H155.148V25.8906H159.664V24.875H151.039V22.6094H159.336V18.4062H149.789V19.4219H158.133V21.6094H149.82V25.8906H153.945V28.5156H148.227V29.5469H160.945V28.5156ZM171.008 21.1094V18.5781H169.789V21.1094C169.773 23.7422 168.062 26.3984 165.992 27.3438L166.773 28.375C168.398 27.5547 169.766 25.7969 170.406 23.7031C171.07 25.6797 172.438 27.3281 174.023 28.0938L174.773 27.125C172.727 26.1953 171 23.6484 171.008 21.1094ZM176.289 31.2969H177.523V17.375H176.289V31.2969ZM184.602 19.9531V19.3594H187.727V18.3594H180.227V19.3594H183.398V19.9531C183.383 21.9453 181.93 23.7344 179.852 24.4688L180.508 25.4219C182.141 24.8281 183.414 23.6016 184.008 22.0234C184.602 23.4609 185.812 24.5938 187.398 25.1562L188.023 24.2031C185.969 23.4922 184.609 21.8047 184.602 19.9531ZM181.664 27.4844H189.539V31.2656H190.758V26.4844H181.664V27.4844ZM189.539 25.75H190.758V22.0938H192.852V21.0469H190.758V17.375H189.539V25.75ZM204.477 17.375H203.258V31.2656H204.477V24.125H206.805V23.1094H204.477V17.375ZM193.648 20.625H201.914V19.6094H198.445V17.5469H197.227V19.6094H193.648V20.625ZM194.445 24.9688C194.438 26.8516 195.875 28.1562 197.852 28.1562C199.812 28.1562 201.242 26.8516 201.258 24.9688C201.242 23.0938 199.812 21.7812 197.852 21.7812C195.875 21.7812 194.438 23.0938 194.445 24.9688ZM195.617 24.9688C195.609 23.7109 196.555 22.8047 197.852 22.8125C199.133 22.8047 200.07 23.7109 200.086 24.9688C200.07 26.2344 199.133 27.125 197.852 27.1094C196.555 27.125 195.609 26.2344 195.617 24.9688ZM219.039 17.375H217.805V31.2656H219.039V17.375ZM207.727 27.6562L208.398 28.6562C213.055 26.4219 214.914 22.8828 214.93 18.8906H208.367V19.8906H213.68C213.406 23.2109 211.484 25.875 207.727 27.6562Z" fill="#2A2E37"/>
<path d="M31.978 15C25.6938 15 20.5996 19.0167 20.5996 23.9714C20.5996 27.1747 22.7294 29.9855 25.933 31.5727C25.7587 32.1738 24.813 35.4396 24.7753 35.6962C24.7753 35.6962 24.7527 35.8889 24.8775 35.9624C25.0024 36.036 25.1492 35.9789 25.1492 35.9789C25.5072 35.9289 29.3004 33.2643 29.957 32.8017C30.6129 32.8945 31.2883 32.9428 31.978 32.9428C38.2621 32.9428 43.3563 28.9263 43.3563 23.9714C43.3563 19.0167 38.2621 15 31.978 15Z" fill="#31213C"/>
</svg>
