<svg width="24" height="24" viewBox="0 0 24 24" fill="none" xmlns="http://www.w3.org/2000/svg">
<path d="M3.25005 9.99989C3.03723 9.99989 2.85903 9.92553 2.71545 9.77682C2.57185 9.6281 2.51031 9.45247 2.53082 9.24992C2.62186 8.13068 2.90135 7.06049 3.3693 6.03934C3.83725 5.01818 4.46545 4.10759 5.2539 3.30759C5.39237 3.16914 5.5664 3.09831 5.776 3.09509C5.98562 3.09189 6.16799 3.16786 6.32313 3.32299C6.46158 3.46144 6.5324 3.63034 6.5356 3.82969C6.53882 4.02906 6.46799 4.20823 6.32313 4.36719C5.66286 5.03899 5.13593 5.78739 4.74233 6.61239C4.34874 7.43739 4.11157 8.31657 4.0308 9.24992C4.01028 9.46273 3.92823 9.64093 3.78465 9.78452C3.64107 9.9281 3.46287 9.99989 3.25005 9.99989ZM20.75 9.99989C20.5475 9.99989 20.3718 9.9281 20.2231 9.78452C20.0744 9.64093 19.9898 9.46273 19.9692 9.24992C19.8885 8.31657 19.6529 7.43899 19.2625 6.61719C18.8721 5.79539 18.3468 5.04859 17.6866 4.37679C17.5417 4.21143 17.4693 4.02906 17.4693 3.82969C17.4693 3.63034 17.5468 3.45823 17.7019 3.31337C17.8506 3.16465 18.0272 3.09029 18.2317 3.09029C18.4362 3.09029 18.6077 3.15953 18.7462 3.29799C19.5346 4.09799 20.1628 5.01017 20.6308 6.03452C21.0987 7.05888 21.3782 8.13068 21.4692 9.24992C21.4897 9.45247 21.4282 9.6281 21.2846 9.77682C21.141 9.92553 20.9628 9.99989 20.75 9.99989ZM5.00003 18.8653C4.78721 18.8653 4.60901 18.7935 4.46542 18.6499C4.32184 18.5063 4.25005 18.3281 4.25005 18.1153C4.25005 17.9025 4.32184 17.7243 4.46542 17.5807C4.60901 17.4371 4.78721 17.3653 5.00003 17.3653H6.25005V10.1153C6.25005 8.78324 6.66672 7.58933 7.50005 6.53357C8.33338 5.4778 9.41672 4.80248 10.7501 4.50762V3.80762C10.7501 3.45505 10.8702 3.15858 11.1106 2.91819C11.351 2.67781 11.6475 2.55762 12 2.55762C12.3526 2.55762 12.6491 2.67781 12.8894 2.91819C13.1298 3.15858 13.25 3.45505 13.25 3.80762V4.50762C14.5833 4.80248 15.6667 5.4778 16.5 6.53357C17.3333 7.58933 17.75 8.78324 17.75 10.1153V17.3653H19C19.2128 17.3653 19.391 17.4371 19.5346 17.5807C19.6782 17.7243 19.75 17.9025 19.75 18.1153C19.75 18.3281 19.6782 18.5063 19.5346 18.6499C19.391 18.7935 19.2128 18.8653 19 18.8653H5.00003ZM7.75 17.3653H16.25V10.1153C16.25 8.94478 15.8343 7.94381 15.0029 7.11239C14.1715 6.28098 13.1705 5.86527 12 5.86527C10.8295 5.86527 9.82854 6.28098 8.99713 7.11239C8.16571 7.94381 7.75 8.94478 7.75 10.1153V17.3653Z" fill="#BBBBBB"/>
<path d="M10.727 21.2827C11.0834 21.6327 11.5078 21.8077 12.0001 21.8077C12.5052 21.8077 12.9327 21.6327 13.2827 21.2827C13.6327 20.9327 13.8077 20.5051 13.8077 20H10.1924C10.1924 20.5051 10.3706 20.9327 10.727 21.2827Z" fill="#BBBBBB"/>
<path d="M12.5345 15.8613C12.391 16.005 12.2129 16.0769 12.0003 16.0769C11.7877 16.0769 11.6095 16.0076 11.4657 15.8692C11.3219 15.7307 11.25 15.5583 11.25 15.3519V11.0769C11.25 10.8644 11.3218 10.6863 11.4653 10.5425C11.6089 10.3988 11.787 10.3269 11.9996 10.3269C12.2122 10.3269 12.3904 10.3961 12.5342 10.5346C12.678 10.673 12.7499 10.8455 12.7499 11.0519V15.3269C12.7499 15.5394 12.6781 15.7175 12.5345 15.8613Z" fill="#52C6D8"/>
<path d="M12.5754 8.38315C12.4206 8.53795 12.2288 8.61535 11.9999 8.61535C11.7711 8.61535 11.5793 8.53795 11.4245 8.38315C11.2697 8.22835 11.1923 8.03653 11.1923 7.80768C11.1923 7.57884 11.2697 7.38702 11.4245 7.2322C11.5793 7.0774 11.7711 7 11.9999 7C12.2288 7 12.4206 7.0774 12.5754 7.2322C12.7302 7.38702 12.8076 7.57884 12.8076 7.80768C12.8076 8.03653 12.7302 8.22835 12.5754 8.38315Z" fill="#52C6D8"/>
</svg>
