<svg width="24" height="24" viewBox="0 0 24 24" fill="none" xmlns="http://www.w3.org/2000/svg">
<g clip-path="url(#clip0_624_4226)">
<mask id="mask0_624_4226" style="mask-type:luminance" maskUnits="userSpaceOnUse" x="0" y="0" width="24" height="24">
<path d="M24 0H0V24H24V0Z" fill="white"/>
</mask>
<g mask="url(#mask0_624_4226)">
<mask id="mask1_624_4226" style="mask-type:luminance" maskUnits="userSpaceOnUse" x="-1" y="0" width="25" height="24">
<path d="M23.9098 0H-0.09021V24H23.9098V0Z" fill="white"/>
</mask>
<g mask="url(#mask1_624_4226)">
<mask id="mask2_624_4226" style="mask-type:luminance" maskUnits="userSpaceOnUse" x="-1" y="0" width="25" height="24">
<path d="M23.9098 0H-0.09021V24H23.9098V0Z" fill="white"/>
</mask>
<g mask="url(#mask2_624_4226)">
<path d="M23.9098 0H-0.09021V24H23.9098V0Z" fill="white"/>
<path d="M14.9098 11C17.6712 11 19.9098 8.76142 19.9098 6C19.9098 3.23858 17.6712 1 14.9098 1C12.1484 1 9.90979 3.23858 9.90979 6C9.90979 8.76142 12.1484 11 14.9098 11Z" fill="#52C6D8"/>
<path d="M14.8198 10C14.7296 10 14.6431 9.96419 14.5794 9.90043C14.5156 9.83667 14.4798 9.75019 14.4798 9.66002V9.00002C14.1485 8.95005 13.8334 8.82335 13.5598 8.63002C13.2887 8.42843 13.075 8.15956 12.9398 7.85002C12.9222 7.80894 12.9131 7.76471 12.9131 7.72002C12.9131 7.67532 12.9222 7.6311 12.9398 7.59002C12.9795 7.50327 13.0511 7.4352 13.1398 7.40002C13.1792 7.38266 13.2217 7.3737 13.2648 7.3737C13.3078 7.3737 13.3504 7.38266 13.3898 7.40002C13.4757 7.43439 13.5466 7.49819 13.5898 7.58002C13.7016 7.81764 13.8784 8.01874 14.0998 8.16002C14.3427 8.29962 14.6197 8.36886 14.8998 8.36002C15.2069 8.3663 15.5093 8.2829 15.7698 8.12002C15.8949 8.04337 15.9965 7.9338 16.0635 7.80329C16.1305 7.67278 16.1604 7.52635 16.1498 7.38002C16.1553 7.24867 16.1333 7.11762 16.0851 6.99532C16.0368 6.87302 15.9635 6.7622 15.8698 6.67002C15.5142 6.41237 15.1142 6.22253 14.6898 6.11002C14.204 5.99649 13.756 5.75873 13.3898 5.42002C13.143 5.14696 13.0137 4.78771 13.0298 4.42002C13.0211 4.21372 13.0599 4.00819 13.1431 3.81922C13.2263 3.63026 13.3517 3.4629 13.5098 3.33002C13.7905 3.08495 14.1394 2.93144 14.5098 2.89002V2.29002C14.5209 2.21368 14.5576 2.14339 14.614 2.09069C14.6703 2.03799 14.7429 2.00602 14.8198 2.00002C14.8661 1.99817 14.9124 2.00613 14.9554 2.02336C14.9985 2.04059 15.0375 2.06671 15.0698 2.10002C15.1327 2.16421 15.1685 2.25014 15.1698 2.34002V2.94002C15.4279 2.9714 15.6766 3.05657 15.8998 3.19002C16.116 3.31276 16.3008 3.48389 16.4398 3.69002C16.4599 3.72681 16.4705 3.76808 16.4705 3.81002C16.4705 3.85196 16.4599 3.89322 16.4398 3.93002C16.4261 3.97442 16.4029 4.01532 16.3718 4.04985C16.3407 4.08439 16.3025 4.11175 16.2598 4.13002C16.2204 4.14737 16.1778 4.15633 16.1348 4.15633C16.0917 4.15633 16.0492 4.14737 16.0098 4.13002C15.9307 4.10349 15.8588 4.05899 15.7998 4.00002C15.6906 3.87555 15.5581 3.77364 15.4098 3.70002C15.2324 3.62699 15.0414 3.59289 14.8498 3.60002C14.5521 3.58168 14.2578 3.67035 14.0198 3.85002C13.9198 3.92399 13.8388 4.0205 13.7832 4.13171C13.7276 4.24292 13.699 4.36568 13.6998 4.49002C13.6982 4.61449 13.7264 4.73753 13.7821 4.84888C13.8377 4.96022 13.9192 5.05661 14.0198 5.13002C14.3927 5.35531 14.7972 5.52383 15.2198 5.63002C15.68 5.74707 16.0989 5.98937 16.4298 6.33002C16.6924 6.63194 16.8347 7.0199 16.8298 7.42002C16.8399 7.63916 16.8012 7.85782 16.7165 8.06017C16.6317 8.26252 16.5031 8.4435 16.3398 8.59002C16.0086 8.86838 15.6005 9.03929 15.1698 9.08002V9.68002C15.1685 9.76989 15.1327 9.85582 15.0698 9.92002C15.0358 9.94974 14.9961 9.97218 14.9531 9.98594C14.9101 9.9997 14.8647 10.0045 14.8198 10Z" fill="white" stroke="white" stroke-width="0.2" stroke-miterlimit="10"/>
<path d="M10.5198 16.59C12.0601 16.6591 13.6024 16.5076 15.0998 16.14C15.3041 16.0461 15.4795 15.8991 15.6079 15.7145C15.7363 15.5299 15.8129 15.3142 15.8298 15.09M15.8298 15.09C15.8524 14.8892 15.8322 14.6859 15.7705 14.4935C15.7089 14.3011 15.6071 14.124 15.472 13.9737C15.3369 13.8235 15.1715 13.7036 14.9867 13.622C14.8018 13.5403 14.6018 13.4987 14.3998 13.5C13.3998 13.41 11.3998 13.5 10.5198 13.5C8.41978 11.5 5.46978 12.66 4.51978 13.5V20.94C7.65651 21.1266 10.8031 21.0631 13.9298 20.75C16.0598 20.38 21.6298 15.87 22.2498 14.21C22.3895 13.8994 22.4223 13.5512 22.343 13.22C22.2637 12.8887 22.0769 12.5931 21.8117 12.3793C21.5465 12.1656 21.218 12.0458 20.8775 12.0387C20.5369 12.0316 20.2037 12.1375 19.9298 12.34C18.6998 13.13 16.9498 14.33 15.8298 15.09Z" stroke="#BBBBBB" stroke-width="1.3" stroke-linecap="round"/>
<path d="M0.90979 19.75V21C0.90979 21.2652 1.01515 21.5196 1.20268 21.7071C1.39022 21.8946 1.64457 22 1.90979 22H2.49979C3.03022 22 3.53893 21.7893 3.914 21.4142C4.28908 21.0391 4.49979 20.5304 4.49979 20V14C4.49979 13.4696 4.28908 12.9609 3.914 12.5858C3.53893 12.2107 3.03022 12 2.49979 12H1.90979C1.64457 12 1.39022 12.1054 1.20268 12.2929C1.01515 12.4804 0.90979 12.7348 0.90979 13V19.75ZM0.90979 19.75H2.26979" stroke="#BBBBBB" stroke-width="1.3" stroke-linecap="round"/>
</g>
</g>
</g>
</g>
<defs>
<clipPath id="clip0_624_4226">
<rect width="24" height="24" fill="white"/>
</clipPath>
</defs>
</svg>
